<?xml version="1.0" encoding="utf-8"?>
<!-- Generator: Adobe Illustrator 18.0.0, SVG Export Plug-In . SVG Version: 6.00 Build 0)  -->
<!DOCTYPE svg PUBLIC "-//W3C//DTD SVG 1.1//EN" "http://www.w3.org/Graphics/SVG/1.1/DTD/svg11.dtd">
<svg version="1.1" id="Layer_1" xmlns="http://www.w3.org/2000/svg" xmlns:xlink="http://www.w3.org/1999/xlink" x="0px" y="0px"
	 viewBox="0 0 84.6 52.7" enable-background="new 0 0 84.6 52.7" xml:space="preserve">
<g>
	<path fill="#FFFFFF" d="M42.5,10.4c11.6,0,23.3-0.1,34.9,0c3.6,0,6.2-1.2,6.2-4.8c0-3.5-2.6-5-6.1-5c-23.4,0.1-46.9,0-70.3,0
		c-3.4,0-6,1.1-6,4.9c0,4,2.6,4.8,6,4.8C18.9,10.3,30.7,10.4,42.5,10.4z M42.5,21.6c-11.6,0-23.3,0-34.9,0C4.1,21.6,1,22,1,26.4
		c0,4.2,3,5,6.5,5c23.1,0,46.2-0.1,69.3,0c3.7,0,6.6-1.1,6.7-5c0-4-3-4.9-6.6-4.9C65.5,21.7,54,21.6,42.5,21.6z M42,42.4
		c-11.5,0-23,0-34.5,0c-3.5,0-6.6,0.5-6.5,4.9c0.1,4,3,4.7,6.3,4.7c23.3,0,46.6,0,69.9,0c3.4,0,6.3-1.2,6.3-4.8c0-4.1-3-4.9-6.6-4.8
		C65.3,42.5,53.6,42.4,42,42.4z"/>
	<path fill="#FFFFFF" d="M42.5,10.4c-11.8,0-23.6-0.1-35.4,0c-3.5,0-6-0.9-6-4.8c0-3.9,2.6-4.9,6-4.9c23.4,0,46.9,0,70.3,0
		c3.6,0,6.1,1.4,6.1,5c0,3.6-2.6,4.9-6.2,4.8C65.7,10.3,54.1,10.4,42.5,10.4z"/>
	<path fill="#FFFFFF" d="M42.5,21.6c11.5,0,22.9,0.1,34.4,0c3.6,0,6.7,0.9,6.6,4.9c0,3.9-3,5-6.7,5c-23.1-0.1-46.2-0.1-69.3,0
		c-3.6,0-6.5-0.7-6.5-5c0-4.4,3-4.8,6.5-4.8C19.2,21.7,30.9,21.6,42.5,21.6z"/>
	<path fill="#FFFFFF" d="M42,42.4c11.7,0,23.3,0.1,35,0c3.6,0,6.6,0.8,6.6,4.8c0,3.7-2.9,4.8-6.3,4.8c-23.3,0-46.6,0-69.9,0
		C4,52,1.1,51.3,1,47.3c-0.1-4.4,3-4.9,6.5-4.9C19,42.5,30.5,42.4,42,42.4z"/>
</g>
</svg>
