<svg xmlns="http://www.w3.org/2000/svg" xmlns:xlink="http://www.w3.org/1999/xlink" version="1.1" id="Layer_1" x="0px" y="0px" viewBox="0 0 191.9 124.8" style="enable-background:new 0 0 191.9 124.8;" xml:space="preserve">
<style type="text/css">
	.st0{opacity:0.25;fill:#FFFFFF;}
	.st1{fill:#FFFFFF;}
</style>
<path class="st0" d="M53.8 124.8H5c-2.8 0-5-2.2-5-5V70.9c0-2.8 2.2-5 5-5h48.8c2.8 0 5 2.2 5 5v48.8 C58.8 122.5 56.6 124.8 53.8 124.8z M5 67.9c-1.7 0-3 1.3-3 3v48.8c0 1.7 1.3 3 3 3h48.8c1.7 0 3-1.3 3-3V70.9c0-1.7-1.3-3-3-3H5z"/>
<path class="st1" d="M120.7 124.8H71.8c-2.8 0-5-2.2-5-5V70.9c0-2.8 2.2-5 5-5h48.8c2.8 0 5 2.2 5 5v48.8 C125.7 122.5 123.4 124.8 120.7 124.8z M71.8 67.9c-1.7 0-3 1.3-3 3v48.8c0 1.7 1.3 3 3 3h48.8c1.7 0 3-1.3 3-3V70.9 c0-1.7-1.3-3-3-3H71.8z"/>
<path class="st1" d="M120.7 58.8H71.8c-2.8 0-5-2.2-5-5V5c0-2.8 2.2-5 5-5h48.8c2.8 0 5 2.2 5 5v48.8 C125.7 56.6 123.4 58.8 120.7 58.8z M71.8 2c-1.7 0-3 1.3-3 3v48.8c0 1.7 1.3 3 3 3h48.8c1.7 0 3-1.3 3-3V5c0-1.7-1.3-3-3-3H71.8z"/>
<path class="st0" d="M186.9 124.8h-48.8c-2.8 0-5-2.2-5-5V70.9c0-2.8 2.2-5 5-5h48.8c2.8 0 5 2.2 5 5v48.8 C191.9 122.5 189.7 124.8 186.9 124.8z M138.1 67.9c-1.7 0-3 1.3-3 3v48.8c0 1.7 1.3 3 3 3h48.8c1.7 0 3-1.3 3-3V70.9 c0-1.7-1.3-3-3-3H138.1z"/>
<polygon class="st0" points="25.5,95.7 33.3,91.5 33.3,99.2"/>
<polygon class="st1" points="96.6,99.3 92.4,91.4 100.1,91.4"/>
<polygon class="st1" points="95.9,25.5 100.1,33.3 92.4,33.3"/>
<polygon class="st0" points="166.4,95 158.6,99.2 158.6,91.5"/>
</svg>
