<?xml version="1.0" encoding="utf-8"?>
<!-- Generator: Adobe Illustrator 18.1.1, SVG Export Plug-In . SVG Version: 6.00 Build 0)  -->
<!DOCTYPE svg PUBLIC "-//W3C//DTD SVG 1.1//EN" "http://www.w3.org/Graphics/SVG/1.1/DTD/svg11.dtd">
<svg version="1.1" id="Layer_1" xmlns="http://www.w3.org/2000/svg" xmlns:xlink="http://www.w3.org/1999/xlink" x="0px" y="0px"
	 viewBox="0 0 121.8 69.5" style="enable-background:new 0 0 121.8 69.5;" xml:space="preserve">
<style type="text/css">
	.st0{fill:#FFFFFF;}
</style>
<rect x="28.5" y="46.5" class="st0" width="1.6" height="7.6"/>
<path class="st0" d="M37.2,54v-7.6c0,0,1.6-0.5,2.4,0l11.9,6.2v-6.2h1.8V54h-2.6c0,0-10.3-6-11.7-6.3L38.8,54H37.2z"/>
<path class="st0" d="M72.3,46.2c0,0-9.7-0.6-12.5,2.2c0,0-2.1,1.9,0,3.8c0,0,2.1,2.2,12.5,2.2v-1.2c0,0-8.4,0.3-10.2-1.6
	c0,0-1.6-1.3,0-2.9c0,0,1.1-1.7,10.2-1.7V46.2z"/>
<path class="st0" d="M60.9,0C26.7,0,0,15.3,0,34.7s26.7,34.7,60.9,34.7c34.1,0,60.9-15.3,60.9-34.7S95,0,60.9,0z M60.9,64.5
	c-29.3,0-53.1-13.3-53.1-29.8C7.8,18.3,31.6,5,60.9,5C90.2,5,114,18.3,114,34.7C114,51.2,90.2,64.5,60.9,64.5z"/>
<path class="st0" d="M99.5,22.8c0,0-1.7-3.2-8.6-4.9c0,0-6.9-1.5-25-1.5v22.9l-14.8-8c0,0,7.6-2,9.8-5.1c0,0,2.1-3.3-0.6-5.6
	c0,0-2.5-2.8-8.2-3.5c0,0-4.6-0.8-23.7-0.8v26.7h6.4v-24c0,0,15.8-0.3,18.3,2.1c0,0,2.9,2,0.7,4.8c0,0-2.7,3.4-11.8,4.4l23.2,13.4
	h7.1v-8.6c0,0,18.3,0.3,22.1-2.7c0,0,4.1-2,5.7-4.8C100.1,27.8,101.2,25.6,99.5,22.8z M92,29.1c0,0-3.4,3.5-19.8,3.5V19.2
	c0,0,15.7-0.6,19.8,3.5C92,22.7,95,26.2,92,29.1z"/>
</svg>
